<?xml version="1.0"?>
<svg xmlns="http://www.w3.org/2000/svg" width="612" height="792">

<!--
  INSTRUCIONES:
    Llenar sección correspondiente con <text>
      Ejemplo campo simple: Name/Nombre: >>> __nombre__
      Ejemplo campo datos: Bimestre 1 Fila 1 >>> __b1_f1__
      Ejemplo campo datos: Periodo oficial 3 Fila 4 >>> __p3_f4__
-->

  <style>
    .style1 { font: italic 12px sans-serif }
    .style2 { font:    10px sans-serif }
    .style3 { font: bold   12px sans-serif }
    .style4 { font: bold   10px sans-serif }
  </style>

  <rect width="612" height="792" style="fill:rgb(255,255,255);stroke-width:3;stroke:rgb(0,0,0)"/>
  <rect width="600" height="780" style="fill:rgb(255,255,255);stroke-width:1;stroke:rgb(0,0,0)"/>
  
  <!-- HEADER INICIO (Sofi) -->
  <text x="400" y="35" class="style3">__nombre__</text>
  <text x="450" y="45" class="style3">__gradogrupo__</text>
  <text x="380" y="58" class="style3">__fecha__</text>
  <text x="420" y="68" class="style3">__ciclo__</text>
  <!-- HEADER FIN -->

  <!-- ETIQUETAS BIMESTRES INTERNO INICIO (SOFIA) -->
  <!-- ETIQUETAS BIMESTRES INTERNO FIN -->

  <!-- ETIQUETAS MATERIAS INTERNO INICIO (Sofi) -->
  <text x="25" y="150" class="style2">Español</text> <!-- m_e1 -->
  <text x="25" y="162" class="style2">Inglés</text> <!-- m_e2 -->
  <text x="25" y="174" class="style2">Literature and Creative Writing</text> <!-- m_e3 -->
  <text x="25" y="186" class="style2">Matemáticas</text> <!-- m_e4 -->
  <text x="25" y="198" class="style2">Ciencias Naturales</text> <!-- m_e5 -->
  <text x="25" y="210" class="style2">Geografia</text> <!-- m_e6 -->
  <text x="25" y="222" class="style2">Historia</text> <!-- m_e7 -->
  <text x="25" y="234" class="style2">Formación Cívica y Ética</text> <!-- m_e8 -->
  <text x="25" y="246" class="style2">Educación Fisíca</text> <!-- m_e9 -->
  <text x="25" y="258" class="style2">Educación Artística</text> <!-- m_e10 -->
  <text x="25" y="270" class="style2">Orientacion y Tutorias</text> <!-- m_e11 -->
  <text x="25" y="282" class="style2">Innovación Tecnológica</text> <!-- m_e12 -->
  <text x="25" y="294" class="style2">Mindful Yoga</text> <!-- m_e13 -->
  <text x="25" y="306" class="style2">Laboratorio de Matemáticas</text> <!-- m_e14 -->
  <text x="25" y="318" class="style2">Responsabilidad</text> <!-- m_e15 -->
  <text x="25" y="330" class="style2">00</text> <!-- m_e16 -->
  <!-- ETIQUETAS MATERIAS INTERNO FIN -->

  <!-- DATOS BIMESTRE 1 INTERNO INICIO (Sofi) -->
  <text x="180" y="150" class="style2">00</text> <!-- p1_f1_a -->
  <text x="200" y="150" class="style2">00</text> <!-- p1_f1_b -->
  <text x="220" y="150" class="style2">00</text> <!-- p1_f1_c -->
  <text x="180" y="162" class="style2">00</text> <!-- p1_f2_a -->
  <text x="200" y="162" class="style2">00</text> <!-- p1_f2_b -->
  <text x="220" y="162" class="style2">00</text> <!-- p1_f2_c -->
  <text x="180" y="174" class="style2">00</text> <!-- p1_f3_a -->
  <text x="200" y="174" class="style2">00</text> <!-- p1_f3_b -->
  <text x="220" y="174" class="style2">00</text> <!-- p1_f3_c -->
  <text x="180" y="186" class="style2">00</text> <!-- p1_f4_a -->
  <text x="200" y="186" class="style2">00</text> <!-- p1_f4_b -->
  <text x="220" y="186" class="style2">00</text> <!-- p1_f4_c -->
  <text x="180" y="198" class="style2">00</text> <!-- p1_f5_a -->
  <text x="200" y="198" class="style2">00</text> <!-- p1_f5_b -->
  <text x="220" y="198" class="style2">00</text> <!-- p1_f5_c -->
  <text x="180" y="210" class="style2">00</text> <!-- p1_f6_a -->
  <text x="200" y="210" class="style2">00</text> <!-- p1_f6_b -->
  <text x="220" y="210" class="style2">00</text> <!-- p1_f6_c -->
  <text x="180" y="222" class="style2">00</text> <!-- p1_f7_a -->
  <text x="200" y="222" class="style2">00</text> <!-- p1_f7_b -->
  <text x="220" y="222" class="style2">00</text> <!-- p1_f7_c -->
  <text x="180" y="234" class="style2">00</text> <!-- p1_f8_a -->
  <text x="200" y="234" class="style2">00</text> <!-- p1_f8_b -->
  <text x="220" y="234" class="style2">00</text> <!-- p1_f8_c -->
  <text x="180" y="246" class="style2">00</text> <!-- p1_f9_a -->
  <text x="200" y="246" class="style2">00</text> <!-- p1_f9_b -->
  <text x="220" y="246" class="style2">00</text> <!-- p1_f9_c -->
  <text x="180" y="258" class="style2">00</text> <!-- p1_f10_a -->
  <text x="200" y="258" class="style2">00</text> <!-- p1_f10_b -->
  <text x="220" y="258" class="style2">00</text> <!-- p1_f10_c -->
  <text x="180" y="270" class="style2">00</text> <!-- p1_f11_a -->
  <text x="200" y="270" class="style2">00</text> <!-- p1_f11_b -->
  <text x="220" y="270" class="style2">00</text> <!-- p1_f11_c -->
  <text x="180" y="282" class="style2">00</text> <!-- p1_f12_a -->
  <text x="200" y="282" class="style2">00</text> <!-- p1_f12_b -->
  <text x="220" y="282" class="style2">00</text> <!-- p1_f12_c -->
  <text x="180" y="294" class="style2">00</text> <!-- p1_f13_a -->
  <text x="200" y="294" class="style2">00</text> <!-- p1_f13_b -->
  <text x="220" y="294" class="style2">00</text> <!-- p1_f13_c -->
  <text x="180" y="306" class="style2">00</text> <!-- p1_f14_a -->
  <text x="200" y="306" class="style2">00</text> <!-- p1_f14_b -->
  <text x="220" y="306" class="style2">00</text> <!-- p1_f14_c -->
  <text x="180" y="318" class="style2">00</text> <!-- p1_f15_a -->
  <text x="200" y="318" class="style2">00</text> <!-- p1_f15_b -->
  <text x="220" y="318" class="style2">00</text> <!-- p1_f15_c -->
  <text x="180" y="330" class="style2">00</text> <!-- p1_f16_a -->
  <text x="200" y="330" class="style2">00</text> <!-- p1_f16_b -->
  <text x="220" y="330" class="style2">00</text> <!-- p1_f16_c -->
  <!-- DATOS BIMESTRE 1 INTERNO FIN -->

  <!-- DATOS BIMESTRE 2 INTERNO INICIO (Sofi) -->
  <text x="250" y="150" class="style2">00</text> <!-- p2_f1_a -->
  <text x="270" y="150" class="style2">00</text> <!-- p2_f1_b -->
  <text x="290" y="150" class="style2">00</text> <!-- p2_f1_c -->
  <text x="250" y="162" class="style2">00</text> <!-- p2_f2_a -->
  <text x="270" y="162" class="style2">00</text> <!-- p2_f2_b -->
  <text x="290" y="162" class="style2">00</text> <!-- p2_f2_c -->
  <text x="250" y="174" class="style2">00</text> <!-- p2_f3_a -->
  <text x="270" y="174" class="style2">00</text> <!-- p2_f3_b -->
  <text x="290" y="174" class="style2">00</text> <!-- p2_f3_c -->
  <text x="250" y="186" class="style2">00</text> <!-- p2_f4_a -->
  <text x="270" y="186" class="style2">00</text> <!-- p2_f4_b -->
  <text x="290" y="186" class="style2">00</text> <!-- p2_f4_c -->
  <text x="250" y="198" class="style2">00</text> <!-- p2_f5_a -->
  <text x="270" y="198" class="style2">00</text> <!-- p2_f5_b -->
  <text x="290" y="198" class="style2">00</text> <!-- p2_f5_c -->
  <text x="250" y="210" class="style2">00</text> <!-- p2_f6_a -->
  <text x="270" y="210" class="style2">00</text> <!-- p2_f6_b -->
  <text x="290" y="210" class="style2">00</text> <!-- p2_f6_c -->
  <text x="250" y="222" class="style2">00</text> <!-- p2_f7_a -->
  <text x="270" y="222" class="style2">00</text> <!-- p2_f7_b -->
  <text x="290" y="222" class="style2">00</text> <!-- p2_f7_c -->
  <text x="250" y="234" class="style2">00</text> <!-- p2_f8_a -->
  <text x="270" y="234" class="style2">00</text> <!-- p2_f8_b -->
  <text x="290" y="234" class="style2">00</text> <!-- p2_f8_c -->
  <text x="250" y="246" class="style2">00</text> <!-- p2_f9_a -->
  <text x="270" y="246" class="style2">00</text> <!-- p2_f9_b -->
  <text x="290" y="246" class="style2">00</text> <!-- p2_f9_c -->
  <text x="250" y="258" class="style2">00</text> <!-- p2_f10_a -->
  <text x="270" y="258" class="style2">00</text> <!-- p2_f10_b -->
  <text x="290" y="258" class="style2">00</text> <!-- p2_f10_c -->
  <text x="250" y="270" class="style2">00</text> <!-- p2_f11_a -->
  <text x="270" y="270" class="style2">00</text> <!-- p2_f11_b -->
  <text x="290" y="270" class="style2">00</text> <!-- p2_f11_c -->
  <text x="250" y="282" class="style2">00</text> <!-- p2_f12_a -->
  <text x="270" y="282" class="style2">00</text> <!-- p2_f12_b -->
  <text x="290" y="282" class="style2">00</text> <!-- p2_f12_c -->
  <text x="250" y="294" class="style2">00</text> <!-- p2_f13_a -->
  <text x="270" y="294" class="style2">00</text> <!-- p2_f13_b -->
  <text x="290" y="294" class="style2">00</text> <!-- p2_f13_c -->
  <text x="250" y="306" class="style2">00</text> <!-- p2_f14_a -->
  <text x="270" y="306" class="style2">00</text> <!-- p2_f14_b -->
  <text x="290" y="306" class="style2">00</text> <!-- p2_f14_c -->
  <text x="250" y="318" class="style2">00</text> <!-- p2_f15_a -->
  <text x="270" y="318" class="style2">00</text> <!-- p2_f15_b -->
  <text x="290" y="318" class="style2">00</text> <!-- p2_f15_c -->
  <text x="250" y="330" class="style2">00</text> <!-- p2_f16_a -->
  <text x="270" y="330" class="style2">00</text> <!-- p2_f16_b -->
  <text x="290" y="330" class="style2">00</text> <!-- p2_f16_c -->
  <!-- DATOS BIMESTRE 2 INTERNO FIN -->

  <!-- DATOS BIMESTRE 3 INTERNO INICIO (Sofi)-->
  <text x="320" y="150" class="style2">00</text> <!-- p3_f1_a -->
  <text x="340" y="150" class="style2">00</text> <!-- p3_f1_b -->
  <text x="360" y="150" class="style2">00</text> <!-- p3_f1_c -->
  <text x="320" y="162" class="style2">00</text> <!-- p3_f2_a -->
  <text x="340" y="162" class="style2">00</text> <!-- p3_f2_b -->
  <text x="360" y="162" class="style2">00</text> <!-- p3_f2_c -->
  <text x="320" y="174" class="style2">00</text> <!-- p3_f3_a -->
  <text x="340" y="174" class="style2">00</text> <!-- p3_f3_b -->
  <text x="360" y="174" class="style2">00</text> <!-- p3_f3_c -->
  <text x="320" y="186" class="style2">00</text> <!-- p3_f4_a -->
  <text x="340" y="186" class="style2">00</text> <!-- p3_f4_b -->
  <text x="360" y="186" class="style2">00</text> <!-- p3_f4_c -->
  <text x="320" y="198" class="style2">00</text> <!-- p3_f5_a -->
  <text x="340" y="198" class="style2">00</text> <!-- p3_f5_b -->
  <text x="360" y="198" class="style2">00</text> <!-- p3_f5_c -->
  <text x="320" y="210" class="style2">00</text> <!-- p3_f6_a -->
  <text x="340" y="210" class="style2">00</text> <!-- p3_f6_b -->
  <text x="360" y="210" class="style2">00</text> <!-- p3_f6_c -->
  <text x="320" y="222" class="style2">00</text> <!-- p3_f7_a -->
  <text x="340" y="222" class="style2">00</text> <!-- p3_f7_b -->
  <text x="360" y="222" class="style2">00</text> <!-- p3_f7_c -->
  <text x="320" y="234" class="style2">00</text> <!-- p3_f8_a -->
  <text x="340" y="234" class="style2">00</text> <!-- p3_f8_b -->
  <text x="360" y="234" class="style2">00</text> <!-- p3_f8_c -->
  <text x="320" y="246" class="style2">00</text> <!-- p3_f9_a -->
  <text x="340" y="246" class="style2">00</text> <!-- p3_f9_b -->
  <text x="360" y="246" class="style2">00</text> <!-- p3_f9_c -->
  <text x="320" y="258" class="style2">00</text> <!-- p3_f10_a -->
  <text x="340" y="258" class="style2">00</text> <!-- p3_f10_b -->
  <text x="360" y="258" class="style2">00</text> <!-- p3_f10_c -->
  <text x="320" y="270" class="style2">00</text> <!-- p3_f11_a -->
  <text x="340" y="270" class="style2">00</text> <!-- p3_f11_b -->
  <text x="360" y="270" class="style2">00</text> <!-- p3_f11_c -->
  <text x="320" y="282" class="style2">00</text> <!-- p3_f12_a -->
  <text x="340" y="282" class="style2">00</text> <!-- p3_f12_b -->
  <text x="360" y="282" class="style2">00</text> <!-- p3_f12_c -->
  <text x="320" y="294" class="style2">00</text> <!-- p3_f13_a -->
  <text x="340" y="294" class="style2">00</text> <!-- p3_f13_b -->
  <text x="360" y="294" class="style2">00</text> <!-- p3_f13_c -->
  <text x="320" y="306" class="style2">00</text> <!-- p3_f14_a -->
  <text x="340" y="306" class="style2">00</text> <!-- p3_f14_b -->
  <text x="360" y="306" class="style2">00</text> <!-- p3_f14_c -->
  <text x="320" y="318" class="style2">00</text> <!-- p3_f15_a -->
  <text x="340" y="318" class="style2">00</text> <!-- p3_f15_b -->
  <text x="360" y="318" class="style2">00</text> <!-- p3_f15_c -->
  <text x="320" y="330" class="style2">00</text> <!-- p3_f16_a -->
  <text x="340" y="330" class="style2">00</text> <!-- p3_f16_b -->
  <text x="360" y="330" class="style2">00</text> <!-- p3_f16_c -->
  <!-- DATOS BIMESTRE 3 INTERNO FIN -->

  <!-- DATOS BIMESTRE 4 INTERNO INICIO (Sofi) -->
  <text x="390" y="150" class="style2">00</text> <!-- p4_f1_a -->
  <text x="410" y="150" class="style2">00</text> <!-- p4_f1_b -->
  <text x="430" y="150" class="style2">00</text> <!-- p4_f1_c -->
  <text x="390" y="162" class="style2">00</text> <!-- p4_f2_a -->
  <text x="410" y="162" class="style2">00</text> <!-- p4_f2_b -->
  <text x="430" y="162" class="style2">00</text> <!-- p4_f2_c -->
  <text x="390" y="174" class="style2">00</text> <!-- p4_f3_a -->
  <text x="410" y="174" class="style2">00</text> <!-- p4_f3_b -->
  <text x="430" y="174" class="style2">00</text> <!-- p4_f3_c -->
  <text x="390" y="186" class="style2">00</text> <!-- p4_f4_a -->
  <text x="410" y="186" class="style2">00</text> <!-- p4_f4_b -->
  <text x="430" y="186" class="style2">00</text> <!-- p4_f4_c -->
  <text x="390" y="198" class="style2">00</text> <!-- p4_f5_a -->
  <text x="410" y="198" class="style2">00</text> <!-- p4_f5_b -->
  <text x="430" y="198" class="style2">00</text> <!-- p4_f5_c -->
  <text x="390" y="210" class="style2">00</text> <!-- p4_f6_a -->
  <text x="410" y="210" class="style2">00</text> <!-- p4_f6_b -->
  <text x="430" y="210" class="style2">00</text> <!-- p4_f6_c -->
  <text x="390" y="222" class="style2">00</text> <!-- p4_f7_a -->
  <text x="410" y="222" class="style2">00</text> <!-- p4_f7_b -->
  <text x="430" y="222" class="style2">00</text> <!-- p4_f7_c -->
  <text x="390" y="234" class="style2">00</text> <!-- p4_f8_a -->
  <text x="410" y="234" class="style2">00</text> <!-- p4_f8_b -->
  <text x="430" y="234" class="style2">00</text> <!-- p4_f8_c -->
  <text x="390" y="246" class="style2">00</text> <!-- p4_f9_a -->
  <text x="410" y="246" class="style2">00</text> <!-- p4_f9_b -->
  <text x="430" y="246" class="style2">00</text> <!-- p4_f9_c -->
  <text x="390" y="258" class="style2">00</text> <!-- p4_f10_a -->
  <text x="410" y="258" class="style2">00</text> <!-- p4_f10_b -->
  <text x="430" y="258" class="style2">00</text> <!-- p4_f10_c -->
  <text x="390" y="270" class="style2">00</text> <!-- p4_f11_a -->
  <text x="410" y="270" class="style2">00</text> <!-- p4_f11_b -->
  <text x="430" y="270" class="style2">00</text> <!-- p4_f11_c -->
  <text x="390" y="282" class="style2">00</text> <!-- p4_f12_a -->
  <text x="410" y="282" class="style2">00</text> <!-- p4_f12_b -->
  <text x="430" y="282" class="style2">00</text> <!-- p4_f12_c -->
  <text x="390" y="294" class="style2">00</text> <!-- p4_f13_a -->
  <text x="410" y="294" class="style2">00</text> <!-- p4_f13_b -->
  <text x="430" y="294" class="style2">00</text> <!-- p4_f13_c -->
  <text x="390" y="306" class="style2">00</text> <!-- p4_f14_a -->
  <text x="410" y="306" class="style2">00</text> <!-- p4_f14_b -->
  <text x="430" y="306" class="style2">00</text> <!-- p4_f14_c -->
  <text x="390" y="318" class="style2">00</text> <!-- p4_f15_a -->
  <text x="410" y="318" class="style2">00</text> <!-- p4_f15_b -->
  <text x="430" y="318" class="style2">00</text> <!-- p4_f15_c -->
  <text x="390" y="330" class="style2">00</text> <!-- p4_f16_a -->
  <text x="410" y="330" class="style2">00</text> <!-- p4_f16_b -->
  <text x="430" y="330" class="style2">00</text> <!-- p4_f16_c -->
  <!-- DATOS BIMESTRE 4 INTERNO FIN -->

  <!-- DATOS BIMESTRE 5 INTERNO INICIO (Sofi) -->
  <text x="460" y="150" class="style2">00</text> <!-- p5_f1_a -->
  <text x="480" y="150" class="style2">00</text> <!-- p5_f1_b -->
  <text x="500" y="150" class="style2">00</text> <!-- p5_f1_c -->
  <text x="460" y="162" class="style2">00</text> <!-- p5_f2_a -->
  <text x="480" y="162" class="style2">00</text> <!-- p5_f2_b -->
  <text x="500" y="162" class="style2">00</text> <!-- p5_f2_c -->
  <text x="460" y="174" class="style2">00</text> <!-- p5_f3_a -->
  <text x="480" y="174" class="style2">00</text> <!-- p5_f3_b -->
  <text x="500" y="174" class="style2">00</text> <!-- p5_f3_c -->
  <text x="460" y="186" class="style2">00</text> <!-- p5_f4_a -->
  <text x="480" y="186" class="style2">00</text> <!-- p5_f4_b -->
  <text x="500" y="186" class="style2">00</text> <!-- p5_f4_c -->
  <text x="460" y="198" class="style2">00</text> <!-- p5_f5_a -->
  <text x="480" y="198" class="style2">00</text> <!-- p5_f5_b -->
  <text x="500" y="198" class="style2">00</text> <!-- p5_f5_c -->
  <text x="460" y="210" class="style2">00</text> <!-- p5_f6_a -->
  <text x="480" y="210" class="style2">00</text> <!-- p5_f6_b -->
  <text x="500" y="210" class="style2">00</text> <!-- p5_f6_c -->
  <text x="460" y="222" class="style2">00</text> <!-- p5_f7_a -->
  <text x="480" y="222" class="style2">00</text> <!-- p5_f7_b -->
  <text x="500" y="222" class="style2">00</text> <!-- p5_f7_c -->
  <text x="460" y="234" class="style2">00</text> <!-- p5_f8_a -->
  <text x="480" y="234" class="style2">00</text> <!-- p5_f8_b -->
  <text x="500" y="234" class="style2">00</text> <!-- p5_f8_c -->
  <text x="460" y="246" class="style2">00</text> <!-- p5_f9_a -->
  <text x="480" y="246" class="style2">00</text> <!-- p5_f9_b -->
  <text x="500" y="246" class="style2">00</text> <!-- p5_f9_c -->
  <text x="460" y="258" class="style2">00</text> <!-- p5_f10_a -->
  <text x="480" y="258" class="style2">00</text> <!-- p5_f10_b -->
  <text x="500" y="258" class="style2">00</text> <!-- p5_f10_c -->
  <text x="460" y="270" class="style2">00</text> <!-- p5_f11_a -->
  <text x="480" y="270" class="style2">00</text> <!-- p5_f11_b -->
  <text x="500" y="270" class="style2">00</text> <!-- p5_f11_c -->
  <text x="460" y="282" class="style2">00</text> <!-- p5_f12_a -->
  <text x="480" y="282" class="style2">00</text> <!-- p5_f12_b -->
  <text x="500" y="282" class="style2">00</text> <!-- p5_f12_c -->
  <text x="460" y="294" class="style2">00</text> <!-- p5_f13_a -->
  <text x="480" y="294" class="style2">00</text> <!-- p5_f13_b -->
  <text x="500" y="294" class="style2">00</text> <!-- p5_f13_c -->
  <text x="460" y="306" class="style2">00</text> <!-- p5_f14_a -->
  <text x="480" y="306" class="style2">00</text> <!-- p5_f14_b -->
  <text x="500" y="306" class="style2">00</text> <!-- p5_f14_c -->
  <text x="460" y="318" class="style2">00</text> <!-- p5_f15_a -->
  <text x="480" y="318" class="style2">00</text> <!-- p5_f15_b -->
  <text x="500" y="318" class="style2">00</text> <!-- p5_f15_c -->
  <text x="460" y="330" class="style2">00</text> <!-- p5_f16_a -->
  <text x="480" y="330" class="style2">00</text> <!-- p5_f16_b -->
  <text x="500" y="330" class="style2">00</text> <!-- p5_f16_c -->
  <!-- DATOS BIMESTRE 5 INTERNO FIN -->

  <!-- DATOS PROMEDIO FINAL BIM INICIO (Sofi) -->
  <text x="530" y="150" class="style2">00</text> <!-- p6_f1_a -->
  <text x="550" y="150" class="style2">00</text> <!-- p6_f1_b -->
  <text x="570" y="150" class="style2">00</text> <!-- p6_f1_c -->
  <text x="530" y="162" class="style2">00</text> <!-- p6_f2_a -->
  <text x="550" y="162" class="style2">00</text> <!-- p6_f2_b -->
  <text x="570" y="162" class="style2">00</text> <!-- p6_f2_c -->
  <text x="530" y="174" class="style2">00</text> <!-- p6_f3_a -->
  <text x="550" y="174" class="style2">00</text> <!-- p6_f3_b -->
  <text x="570" y="174" class="style2">00</text> <!-- p6_f3_c -->
  <text x="530" y="186" class="style2">00</text> <!-- p6_f4_a -->
  <text x="550" y="186" class="style2">00</text> <!-- p6_f4_b -->
  <text x="570" y="186" class="style2">00</text> <!-- p6_f4_c -->
  <text x="530" y="198" class="style2">00</text> <!-- p6_f5_a -->
  <text x="550" y="198" class="style2">00</text> <!-- p6_f5_b -->
  <text x="570" y="198" class="style2">00</text> <!-- p6_f5_c -->
  <text x="530" y="210" class="style2">00</text> <!-- p6_f6_a -->
  <text x="550" y="210" class="style2">00</text> <!-- p6_f6_b -->
  <text x="570" y="210" class="style2">00</text> <!-- p6_f6_c -->
  <text x="530" y="222" class="style2">00</text> <!-- p6_f7_a -->
  <text x="550" y="222" class="style2">00</text> <!-- p6_f7_b -->
  <text x="570" y="222" class="style2">00</text> <!-- p6_f7_c -->
  <text x="530" y="234" class="style2">00</text> <!-- p6_f8_a -->
  <text x="550" y="234" class="style2">00</text> <!-- p6_f8_b -->
  <text x="570" y="234" class="style2">00</text> <!-- p6_f8_c -->
  <text x="530" y="246" class="style2">00</text> <!-- p6_f9_a -->
  <text x="550" y="246" class="style2">00</text> <!-- p6_f9_b -->
  <text x="570" y="246" class="style2">00</text> <!-- p6_f9_c -->
  <text x="530" y="258" class="style2">00</text> <!-- p6_f10_a -->
  <text x="550" y="258" class="style2">00</text> <!-- p6_f10_b -->
  <text x="570" y="258" class="style2">00</text> <!-- p6_f10_c -->
  <text x="530" y="270" class="style2">00</text> <!-- p6_f11_a -->
  <text x="550" y="270" class="style2">00</text> <!-- p6_f11_b -->
  <text x="570" y="270" class="style2">00</text> <!-- p6_f11_c -->
  <text x="530" y="282" class="style2">00</text> <!-- p6_f12_a -->
  <text x="550" y="282" class="style2">00</text> <!-- p6_f12_b -->
  <text x="570" y="282" class="style2">00</text> <!-- p6_f12_c -->
  <text x="530" y="294" class="style2">00</text> <!-- p6_f13_a -->
  <text x="550" y="294" class="style2">00</text> <!-- p6_f13_b -->
  <text x="570" y="294" class="style2">00</text> <!-- p6_f13_c -->
  <text x="530" y="306" class="style2">00</text> <!-- p6_f14_a -->
  <text x="550" y="306" class="style2">00</text> <!-- p6_f14_b -->
  <text x="570" y="306" class="style2">00</text> <!-- p6_f14_c -->
  <text x="530" y="318" class="style2">00</text> <!-- p6_f15_a -->
  <text x="550" y="318" class="style2">00</text> <!-- p6_f15_b -->
  <text x="570" y="318" class="style2">00</text> <!-- p6_f15_c -->
  <text x="530" y="330" class="style2">00</text> <!-- p6_f16_a -->
  <text x="550" y="330" class="style2">00</text> <!-- p6_f16_b -->
  <text x="570" y="330" class="style2">00</text> <!-- p6_f16_c -->
  <!-- DAYOS PROMEDIO FINAL BIM FIN  -->


  <!-- ETIQUETAS PERIODOS OFICIAL INICIO (Sofi) -->
  <text x="230" y="350" class="style3">Periodo 1</text> <!-- p1_e1 -->
  <text x="330" y="350" class="style3">Periodo 2</text> <!-- p2_e2 -->
  <text x="430" y="350" class="style3">Periodo 3</text> <!-- p3_e3 -->
  <text x="545" y="350" class="style3">Final</text> <!-- p4_e4 -->
  <!-- ETIQUETAS PERIODOS OFICIAL FIN -->

  <!-- ETIQUETAS MATERIAS OFICIAL INICIO (Sofi) -->
  <text x="25" y="372" class="style2">Lengua Materna Español</text> <!-- m1_e1 -->
  <text x="25" y="384" class="style2">Segunda Lengua: Inglés</text> <!-- m2_e2 -->
  <text x="25" y="396" class="style2">Matemáticas</text> <!-- m2_e3 -->
  <text x="25" y="408" class="style2">Ciencias Naturales</text> <!-- m2_e4 -->
  <text x="25" y="420" class="style2">Geografica</text> <!-- m2_e5 -->
  <text x="25" y="432" class="style2">Historia</text> <!-- m2_e6 -->
  <text x="25" y="444" class="style2">Formación Cívica y Ética</text> <!-- m2_e7 -->
  <text x="25" y="456" class="style2">Educación Fisíca</text> <!-- m2_e8 -->
  <text x="25" y="468" class="style2">Educación Artística</text> <!-- m2_e9 -->
  <text x="25" y="480" class="style2">Innovación Tecnológica</text> <!-- m2_e10 -->
  <text x="25" y="492" class="style2">Mingful Yoga</text> <!-- m2_e11 -->
  <text x="25" y="504" class="style2">Literatura and Creative Writing</text> <!-- m2_e12 -->
  <text x="25" y="516" class="style2">00</text> <!-- m2_e13 -->
  <!-- ETIQUETAS MATERIAS OFICIAL FIN -->

  <!-- DATOS PERIODO 1 OFICIAL INICIO (Sofi) -->
  <text x="240" y="372" class="style2">00</text> <!-- p1_o1_a -->
  <text x="260" y="372" class="style2">00</text> <!-- p1_o1_b -->
  <text x="240" y="384" class="style2">00</text> <!-- p1_o2_a -->
  <text x="260" y="384" class="style2">00</text> <!-- p1_o2_b -->
  <text x="240" y="396" class="style2">00</text> <!-- p1_o3_a -->
  <text x="260" y="396" class="style2">00</text> <!-- p1_o3_b -->
  <text x="240" y="408" class="style2">00</text> <!-- p1_o4_a -->
  <text x="260" y="408" class="style2">00</text> <!-- p1_o4_b -->
  <text x="240" y="420" class="style2">00</text> <!-- p1_o5_a -->
  <text x="260" y="420" class="style2">00</text> <!-- p1_o5_b -->
  <text x="240" y="432" class="style2">00</text> <!-- p1_o6_a -->
  <text x="260" y="432" class="style2">00</text> <!-- p1_o6_b -->
  <text x="240" y="444" class="style2">00</text> <!-- p1_o7_a -->
  <text x="260" y="444" class="style2">00</text> <!-- p1_o7_b -->
  <text x="240" y="456" class="style2">00</text> <!-- p1_o8_a -->
  <text x="260" y="456" class="style2">00</text> <!-- p1_o8_b -->
  <text x="240" y="468" class="style2">00</text> <!-- p1_o9_a -->
  <text x="260" y="468" class="style2">00</text> <!-- p1_o9_b -->
  <text x="240" y="480" class="style2">00</text> <!-- p1_o10_a -->
  <text x="260" y="480" class="style2">00</text> <!-- p1_o10_b -->
  <text x="240" y="492" class="style2">00</text> <!-- p1_o11_b -->
  <text x="260" y="492" class="style2">00</text> <!-- p1_o11_b -->
  <text x="240" y="504" class="style2">00</text> <!-- p1_o12_b -->
  <text x="260" y="504" class="style2">00</text> <!-- p1_o12_b -->
  <text x="240" y="516" class="style2">00</text> <!-- p1_o13_b -->
  <text x="260" y="516" class="style2">00</text> <!-- p1_o13_b -->
  <!-- DATOS PERIODO 1 OFICIAL FIN-->

  <!-- DATOS PERIODO 2 OFICIAL INICIO (Sofi) -->
  <text x="340" y="372" class="style2">00</text> <!-- p2_o1_a -->
  <text x="360" y="372" class="style2">00</text> <!-- p2_o1_b -->
  <text x="340" y="384" class="style2">00</text> <!-- p2_o2_a -->
  <text x="360" y="384" class="style2">00</text> <!-- p2_o2_b -->
  <text x="340" y="396" class="style2">00</text> <!-- p2_o3_a -->
  <text x="360" y="396" class="style2">00</text> <!-- p2_o3_b -->
  <text x="340" y="408" class="style2">00</text> <!-- p2_o4_a -->
  <text x="360" y="408" class="style2">00</text> <!-- p2_o4_b -->
  <text x="340" y="420" class="style2">00</text> <!-- p2_o5_a -->
  <text x="360" y="420" class="style2">00</text> <!-- p2_o5_b -->
  <text x="340" y="432" class="style2">00</text> <!-- p2_o6_a -->
  <text x="360" y="432" class="style2">00</text> <!-- p2_o6_b -->
  <text x="340" y="444" class="style2">00</text> <!-- p2_o7_a -->
  <text x="360" y="444" class="style2">00</text> <!-- p2_o7_b -->
  <text x="340" y="456" class="style2">00</text> <!-- p2_o8_a -->
  <text x="360" y="456" class="style2">00</text> <!-- p2_o8_b -->
  <text x="340" y="468" class="style2">00</text> <!-- p2_o9_a -->
  <text x="360" y="468" class="style2">00</text> <!-- p2_o9_b -->
  <text x="340" y="480" class="style2">00</text> <!-- p2_o10_a -->
  <text x="360" y="480" class="style2">00</text> <!-- p2_o10_b -->
  <text x="340" y="492" class="style2">00</text> <!-- p2_o11_b -->
  <text x="360" y="492" class="style2">00</text> <!-- p2_o11_b -->
  <text x="340" y="504" class="style2">00</text> <!-- p2_o12_b -->
  <text x="360" y="504" class="style2">00</text> <!-- p2_o12_b -->
  <text x="340" y="516" class="style2">00</text> <!-- p2_o13_b -->
  <text x="360" y="516" class="style2">00</text> <!-- p2_o13_b -->
  <!-- DATOS PERIODO 2 OFICIAL FIN-->

  <!-- DATOS PERIODO 3 OFICIAL INICIO (Sofi) -->
  <text x="440" y="372" class="style2">00</text> <!-- p3_o1_a -->
  <text x="460" y="372" class="style2">00</text> <!-- p3_o1_b -->
  <text x="440" y="384" class="style2">00</text> <!-- p3_o2_a -->
  <text x="460" y="384" class="style2">00</text> <!-- p3_o2_b -->
  <text x="440" y="396" class="style2">00</text> <!-- p3_o3_a -->
  <text x="460" y="396" class="style2">00</text> <!-- p3_o3_b -->
  <text x="440" y="408" class="style2">00</text> <!-- p3_o4_a -->
  <text x="460" y="408" class="style2">00</text> <!-- p3_o4_b -->
  <text x="440" y="420" class="style2">00</text> <!-- p3_o5_a -->
  <text x="460" y="420" class="style2">00</text> <!-- p3_o5_b -->
  <text x="440" y="432" class="style2">00</text> <!-- p3_o6_a -->
  <text x="460" y="432" class="style2">00</text> <!-- p3_o6_b -->
  <text x="440" y="444" class="style2">00</text> <!-- p3_o7_a -->
  <text x="460" y="444" class="style2">00</text> <!-- p3_o7_b -->
  <text x="440" y="456" class="style2">00</text> <!-- p3_o8_a -->
  <text x="460" y="456" class="style2">00</text> <!-- p3_o8_b -->
  <text x="440" y="468" class="style2">00</text> <!-- p3_o9_a -->
  <text x="460" y="468" class="style2">00</text> <!-- p3_o9_b -->
  <text x="440" y="480" class="style2">00</text> <!-- p3_o10_a -->
  <text x="460" y="480" class="style2">00</text> <!-- p3_o10_b -->
  <text x="440" y="492" class="style2">00</text> <!-- p3_o11_b -->
  <text x="460" y="492" class="style2">00</text> <!-- p3_o11_b -->
  <text x="440" y="504" class="style2">00</text> <!-- p3_o12_b -->
  <text x="460" y="504" class="style2">00</text> <!-- p3_o12_b -->
  <text x="440" y="516" class="style2">00</text> <!-- p3_o13_b -->
  <text x="460" y="516" class="style2">00</text> <!-- p3_o13_b -->
  <!-- DATOS PERIODO 3 OFICIAL FIN-->

  <!-- DATOS PERIODO 4 OFICIAL INICIO (Sofi) -->
  <text x="545" y="372" class="style2">00</text> <!-- p4_o1_a -->
  <text x="565" y="372" class="style2">00</text> <!-- p4_o1_b -->
  <text x="545" y="384" class="style2">00</text> <!-- p4_o2_a -->
  <text x="565" y="384" class="style2">00</text> <!-- p4_o2_b -->
  <text x="545" y="396" class="style2">00</text> <!-- p4_o3_a -->
  <text x="565" y="396" class="style2">00</text> <!-- p4_o3_b -->
  <text x="545" y="408" class="style2">00</text> <!-- p4_o4_a -->
  <text x="565" y="408" class="style2">00</text> <!-- p4_o4_b -->
  <text x="545" y="420" class="style2">00</text> <!-- p4_o5_a -->
  <text x="565" y="420" class="style2">00</text> <!-- p4_o5_b -->
  <text x="545" y="432" class="style2">00</text> <!-- p4_o6_a -->
  <text x="565" y="432" class="style2">00</text> <!-- p4_o6_b -->
  <text x="545" y="444" class="style2">00</text> <!-- p4_o7_a -->
  <text x="565" y="444" class="style2">00</text> <!-- p4_o7_b -->
  <text x="545" y="456" class="style2">00</text> <!-- p4_o8_a -->
  <text x="565" y="456" class="style2">00</text> <!-- p4_o8_b -->
  <text x="545" y="468" class="style2">00</text> <!-- p4_o9_a -->
  <text x="565" y="468" class="style2">00</text> <!-- p4_o9_b -->
  <text x="545" y="480" class="style2">00</text> <!-- p4_o10_a -->
  <text x="565" y="480" class="style2">00</text> <!-- p4_o10_b -->
  <text x="545" y="492" class="style2">00</text> <!-- p1_o11_b -->
  <text x="565" y="492" class="style2">00</text> <!-- p1_o11_b -->
  <text x="545" y="504" class="style2">00</text> <!-- p1_o12_b -->
  <text x="565" y="504" class="style2">00</text> <!-- p1_o12_b -->
  <text x="545" y="516" class="style2">00</text> <!-- p1_o13_b -->
  <text x="565" y="516" class="style2">00</text> <!-- p1_o13_b -->
  <!-- DATOS PERIODO 4 OFICIAL FIN-->

  <!-- DATOS COMENTARIOS INICIO (Sofi) -->
  <text x="25" y="555" class="style2">__p4_o1__</text>
  <text x="25" y="567" class="style2">__p4_o2__</text>
  <text x="25" y="579" class="style2">__p4_o3__</text>
  <text x="25" y="591" class="style2">__p4_o4__</text>
  <!-- DATOS COMENTARIOS FIN-->

  <!-- DATOS PROMEDIO GENERAL OFICIAL INICIO-->
  <text x="220" y="690" class="style2">__prom__</text> <!-- Promedio General -->
  <!-- DATOS PROMEDIO GENERAL FIN-->

</svg>
