<?xml version="1.0"?>
<svg xmlns="http://www.w3.org/2000/svg" width="612" height="792">

<!--
  INSTRUCIONES:
    Llenar sección correspondiente con <text>
      Ejemplo campo simple: Name/Nombre: >>> __nombre__
      Ejemplo campo datos: Bimestre 1 Fila 1 >>> __b1_f1__
      Ejemplo campo datos: Periodo oficial 3 Fila 4 >>> __p3_f4__
-->

  <style>
    .style1 { font: italic 13px sans-serif }
    .style2 { font:    13px sans-serif }
    .style3 { font: bold   13px sans-serif }
  </style>

  <rect width="612" height="792" style="fill:rgb(255,255,255);stroke-width:3;stroke:rgb(0,0,0)"/>

  <!-- HEADER INICIO (Sofi) -->
  <text x="400" y="35" class="style3">__nombre__</text>
  <text x="400" y="45" class="style3">__gradogrupo__</text>
  <text x="400" y="58" class="style3">__fecha__</text>
  <text x="400" y="68" class="style3">__ciclo__</text>
  <!-- HEADER FIN -->

  <!-- ETIQUETAS BIMESTRES INTERNO INICIO (SOFIA) -->
  <!-- ETIQUETAS BIMESTRES INTERNO FIN -->

  <!-- ETIQUETAS MATERIAS INTERNO INICIO (Sofi) -->
  <text x="25" y="150" class="style3">__m_e1__</text>
  <text x="25" y="162" class="style3">__m_e2__</text>
  <text x="25" y="174" class="style3">__m_e3__</text>
  <text x="25" y="186" class="style3">__m_e4__</text>
  <text x="25" y="198" class="style3">__m_e5__</text>
  <text x="25" y="210" class="style3">__m_e6__</text>
  <text x="25" y="222" class="style3">__m_e7__</text>
  <text x="25" y="234" class="style3">__m_e8__</text>
  <text x="25" y="246" class="style3">__m_e9__</text>
  <text x="25" y="258" class="style3">__m_e10__</text>
  <text x="25" y="270" class="style3">__m_e11__</text>
  <text x="25" y="282" class="style3">__m_e12__</text>
  <text x="25" y="294" class="style3">__m_e13__</text>
  <text x="25" y="306" class="style3">__m_e14__</text>
  <text x="25" y="318" class="style3">__m_e15__</text>
  <text x="25" y="330" class="style3">__m_e16__</text>
  <text x="25" y="342" class="style3">__m_e17__</text>
  <text x="25" y="354" class="style3">__m_e18__</text>
  <text x="25" y="366" class="style3">__m_e19__</text>
  <text x="25" y="378" class="style3">__m_e20__</text>
  <!-- ETIQUETAS MATERIAS INTERNO FIN -->

  <!-- DATOS BIMESTRE 1 INTERNO INICIO (Sofi) -->
  <text x="130" y="150" class="style2">__p1_f1__</text>
  <text x="130" y="162" class="style2">__p1_f2__</text>
  <text x="130" y="174" class="style2">__p1_f3__</text>
  <text x="130" y="186" class="style2">__p1_f4__</text>
  <text x="130" y="198" class="style2">__p1_f5__</text>
  <text x="130" y="210" class="style2">__p1_f6__</text>
  <text x="130" y="222" class="style2">__p1_f7__</text>
  <text x="130" y="234" class="style2">__p1_f8__</text>
  <text x="130" y="246" class="style2">__p1_f9__</text>
  <text x="130" y="258" class="style2">__p1_f10__</text>
  <text x="130" y="270" class="style2">__p1_f11__</text>
  <text x="130" y="282" class="style2">__p1_f12__</text>
  <text x="130" y="294" class="style2">__p1_f13__</text>
  <text x="130" y="306" class="style2">__p1_f14__</text>
  <text x="130" y="318" class="style2">__p1_f15__</text>
  <text x="130" y="330" class="style2">__p1_f16__</text>
  <text x="130" y="342" class="style2">__p1_f17__</text>
  <text x="130" y="354" class="style2">__p1_f18__</text>
  <text x="130" y="366" class="style2">__p1_f19__</text>
  <text x="130" y="378" class="style2">__p1_f20__</text>
  <!-- DATOS BIMESTRE 1 INTERNO FIN -->

  <!-- DATOS BIMESTRE 2 INTERNO INICIO (Sofi) -->
  <text x="210" y="150" class="style2">__p2_f1__</text>
  <text x="210" y="162" class="style2">__p2_f2__</text>
  <text x="210" y="174" class="style2">__p2_f3__</text>
  <text x="210" y="186" class="style2">__p2_f4__</text>
  <text x="210" y="198" class="style2">__p2_f5__</text>
  <text x="210" y="210" class="style2">__p2_f6__</text>
  <text x="210" y="222" class="style2">__p2_f7__</text>
  <text x="210" y="234" class="style2">__p2_f8__</text>
  <text x="210" y="246" class="style2">__p2_f9__</text>
  <text x="210" y="258" class="style2">__p2_f10__</text>
  <text x="210" y="270" class="style2">__p2_f11__</text>
  <text x="210" y="282" class="style2">__p2_f12__</text>
  <text x="210" y="294" class="style2">__p2_f13__</text>
  <text x="210" y="306" class="style2">__p2_f14__</text>
  <text x="210" y="318" class="style2">__p2_f15__</text>
  <text x="210" y="330" class="style2">__p2_f16__</text>
  <text x="210" y="342" class="style2">__p2_f17__</text>
  <text x="210" y="354" class="style2">__p2_f18__</text>
  <text x="210" y="366" class="style2">__p2_f19__</text>
  <text x="210" y="378" class="style2">__p2_f20__</text>
  <!-- DATOS BIMESTRE 2 INTERNO FIN -->

  <!-- DATOS BIMESTRE 3 INTERNO INICIO (Sofi)-->
  <text x="290" y="150" class="style2">__p3_f1__</text>
  <text x="290" y="162" class="style2">__p3_f2__</text>
  <text x="290" y="174" class="style2">__p3_f3__</text>
  <text x="290" y="186" class="style2">__p3_f4__</text>
  <text x="290" y="198" class="style2">__p3_f5__</text>
  <text x="290" y="210" class="style2">__p3_f6__</text>
  <text x="290" y="222" class="style2">__p3_f7__</text>
  <text x="290" y="234" class="style2">__p3_f8__</text>
  <text x="290" y="246" class="style2">__p3_f9__</text>
  <text x="290" y="258" class="style2">__p3_f10__</text>
  <text x="290" y="270" class="style2">__p3_f11__</text>
  <text x="290" y="282" class="style2">__p3_f12__</text>
  <text x="290" y="294" class="style2">__p3_f13__</text>
  <text x="290" y="306" class="style2">__p3_f14__</text>
  <text x="290" y="318" class="style2">__p3_f15__</text>
  <text x="290" y="330" class="style2">__p3_f16__</text>
  <text x="290" y="342" class="style2">__p3_f17__</text>
  <text x="290" y="354" class="style2">__p3_f18__</text>
  <text x="290" y="366" class="style2">__p3_f19__</text>
  <text x="290" y="378" class="style2">__p3_f20__</text>
  <!-- DATOS BIMESTRE 3 INTERNO FIN -->

  <!-- DATOS BIMESTRE 4 INTERNO INICIO (Sofi) -->
  <text x="370" y="150" class="style2">__p4_f1__</text>
  <text x="370" y="162" class="style2">__p4_f2__</text>
  <text x="370" y="174" class="style2">__p4_f3__</text>
  <text x="370" y="186" class="style2">__p4_f4__</text>
  <text x="370" y="198" class="style2">__p4_f5__</text>
  <text x="370" y="210" class="style2">__p4_f6__</text>
  <text x="370" y="222" class="style2">__p4_f7__</text>
  <text x="370" y="234" class="style2">__p4_f8__</text>
  <text x="370" y="246" class="style2">__p4_f9__</text>
  <text x="370" y="258" class="style2">__p4_f10__</text>
  <text x="370" y="270" class="style2">__p4_f11__</text>
  <text x="370" y="282" class="style2">__p4_f12__</text>
  <text x="370" y="294" class="style2">__p4_f13__</text>
  <text x="370" y="306" class="style2">__p4_f14__</text>
  <text x="370" y="318" class="style2">__p4_f15__</text>
  <text x="370" y="330" class="style2">__p4_f16__</text>
  <text x="370" y="342" class="style2">__p4_f17__</text>
  <text x="370" y="354" class="style2">__p4_f18__</text>
  <text x="370" y="366" class="style2">__p4_f19__</text>
  <text x="370" y="378" class="style2">__p4_f20__</text>
  <!-- DATOS BIMESTRE 4 INTERNO FIN -->

  <!-- DATOS BIMESTRE 5 INTERNO INICIO (Sofi) -->
  <text x="450" y="150" class="style2">__p5_f1__</text>
  <text x="450" y="162" class="style2">__p5_f2__</text>
  <text x="450" y="174" class="style2">__p5_f3__</text>
  <text x="450" y="186" class="style2">__p5_f4__</text>
  <text x="450" y="198" class="style2">__p5_f5__</text>
  <text x="450" y="210" class="style2">__p5_f6__</text>
  <text x="450" y="222" class="style2">__p5_f7__</text>
  <text x="450" y="234" class="style2">__p5_f8__</text>
  <text x="450" y="246" class="style2">__p5_f9__</text>
  <text x="450" y="258" class="style2">__p5_f10__</text>
  <text x="450" y="270" class="style2">__p5_f11__</text>
  <text x="450" y="282" class="style2">__p5_f12__</text>
  <text x="450" y="294" class="style2">__p5_f13__</text>
  <text x="450" y="306" class="style2">__p5_f14__</text>
  <text x="450" y="318" class="style2">__p5_f15__</text>
  <text x="450" y="330" class="style2">__p5_f16__</text>
  <text x="450" y="342" class="style2">__p5_f17__</text>
  <text x="450" y="354" class="style2">__p5_f18__</text>
  <text x="450" y="366" class="style2">__p5_f19__</text>
  <text x="450" y="378" class="style2">__p5_f20__</text>
  <!-- DATOS BIMESTRE 5 INTERNO FIN -->

  <!-- DATOS PROMEDIO FINAL BIM INICIO (Sofi) -->
  <text x="530" y="150" class="style2">__p6_f1__</text>
  <text x="530" y="162" class="style2">__p6_f2__</text>
  <text x="530" y="174" class="style2">__p6_f3__</text>
  <text x="530" y="186" class="style2">__p6_f4__</text>
  <text x="530" y="198" class="style2">__p6_f5__</text>
  <text x="530" y="210" class="style2">__p6_f6__</text>
  <text x="530" y="222" class="style2">__p6_f7__</text>
  <text x="530" y="234" class="style2">__p6_f8__</text>
  <text x="530" y="246" class="style2">__p6_f9__</text>
  <text x="530" y="258" class="style2">__p6_f10__</text>
  <text x="530" y="270" class="style2">__p6_f11__</text>
  <text x="530" y="282" class="style2">__p6_f12__</text>
  <text x="530" y="294" class="style2">__p6_f13__</text>
  <text x="530" y="306" class="style2">__p6_f14__</text>
  <text x="530" y="318" class="style2">__p6_f15__</text>
  <text x="530" y="330" class="style2">__p6_f16__</text>
  <text x="530" y="342" class="style2">__p6_f17__</text>
  <text x="530" y="354" class="style2">__p6_f18__</text>
  <text x="530" y="366" class="style2">__p6_f19__</text>
  <text x="530" y="378" class="style2">__p6_f20__</text>
  <!-- DAYOS PROMEDIO FINAL BIM FIN  -->


  <!-- ETIQUETAS PERIODOS OFICIAL INICIO (Sofi) -->
  <text x="200" y="425" class="style3">__p1_e1__</text>
  <text x="300" y="425" class="style3">__p2_e2__</text>
  <text x="400" y="425" class="style3">__p3_e3__</text>
  <text x="530" y="425" class="style3">__p3_e4__</text>
  <!-- ETIQUETAS PERIODOS OFICIAL FIN -->

  <!-- ETIQUETAS MATERIAS OFICIAL INICIO (Sofi) -->
  <text x="25" y="445" class="style3">__m1_e1__</text>
  <text x="25" y="457" class="style3">__m1_e2__</text>
  <text x="25" y="469" class="style3">__m1_e3__</text>
  <text x="25" y="481" class="style3">__m1_e4__</text>
  <!-- ETIQUETAS MATERIAS OFICIAL FIN -->

  <!-- DATOS PERIODO 1 OFICIAL INICIO (Sofi) -->
  <text x="200" y="445" class="style2">__p1_o1__</text>
  <text x="200" y="457" class="style2">__p1_o2__</text>
  <text x="200" y="469" class="style2">__p1_o3__</text>
  <text x="200" y="481" class="style2">__p1_o4__</text>
  <!-- DATOS PERIODO 1 OFICIAL FIN-->

  <!-- DATOS PERIODO 2 OFICIAL INICIO (Sofi) -->
  <text x="300" y="445" class="style2">__p2_o1__</text>
  <text x="300" y="457" class="style2">__p2_o2__</text>
  <text x="300" y="469" class="style2">__p2_o3__</text>
  <text x="300" y="481" class="style2">__p2_o4__</text>
  <!-- DATOS PERIODO 2 OFICIAL FIN-->

  <!-- DATOS PERIODO 3 OFICIAL INICIO (Sofi) -->
  <text x="400" y="445" class="style2">__p3_o1__</text>
  <text x="400" y="457" class="style2">__p3_o2__</text>
  <text x="400" y="469" class="style2">__p3_o3__</text>
  <text x="400" y="481" class="style2">__p3_o4__</text>
  <!-- DATOS PERIODO 3 OFICIAL FIN-->

  <!-- DATOS PERIODO 4 OFICIAL INICIO (Sofi) -->
  <text x="530" y="445" class="style2">__p4_o1__</text>
  <text x="530" y="457" class="style2">__p4_o2__</text>
  <text x="530" y="469" class="style2">__p4_o3__</text>
  <text x="530" y="481" class="style2">__p4_o4__</text>
  <!-- DATOS PERIODO 4 OFICIAL FIN-->

  <!-- DATOS COMENTARIOS INICIO (Sofi) -->
  <text x="25" y="550" class="style2">__p4_o1__</text>
  <text x="25" y="562" class="style2">__p4_o2__</text>
  <text x="25" y="574" class="style2">__p4_o3__</text>
  <text x="25" y="586" class="style2">__p4_o4__</text>
  <!-- DATOS COMENTARIOS FIN-->

  <!-- DATOS PROMEDIO GENERAL OFICIAL INICIO-->
  <text x="215" y="670" class="style2">__prom__</text>
  <!-- DATOS PROMEDIO GENERAL FIN-->

</svg>
